<svg xmlns="http://www.w3.org/2000/svg" width="295" height="56" viewBox="0 0 78.052 14.817" id="svg8">
    <defs id="defs2">
        <style id="style3746">.cls-1{fill:#fff}</style>
    </defs>
    <g id="layer1" transform="translate(-96.818 -157.3)">
        <g id="buttons" transform="matrix(.26458 0 0 .26458 96.818 157.3)" fill="none" fill-rule="evenodd">
            <g transform="translate(-360 -994)" id="itsme_buttons_examples">
                <g transform="translate(48 867)" id="Francais" fill="#87cea3" fill-opacity=".392">
                    <rect id="Rectangle-5-Copy-10" x="312" y="127" width="295" height="56" rx="12" fill-opacity="1"/>
                </g>
            </g>
        </g>
        <circle id="path3807" cx="107.95" cy="164.708" r="4.914" fill="#fff" stroke-width=".176"/>
    </g>
    <g id="layer2" transform="translate(-96.818 -157.3)">
        <g id="g3797" transform="matrix(.10903 0 0 .10903 106.147 160.763)">
            <path id="path3752" d="M24.63 29.62H6.38a2.5 2.5 0 0 1-2.5-2.5V2.67a2.5 2.5 0 0 1 2.5-2.5h18.25a2.5 2.5 0 0 1 2.5 2.5v24.45a2.5 2.5 0 0 1-2.5 2.5zM6.38 1.17a1.5 1.5 0 0 0-1.5 1.5v24.45a1.5 1.5 0 0 0 1.5 1.5h18.25a1.5 1.5 0 0 0 1.5-1.5V2.67a1.5 1.5 0 0 0-1.5-1.5z"/>
            <rect id="rect3754" ry="1" rx="1" height="5" width="7.58" y="38.54" x="11.71" class="cls-1" fill="#fff"/>
            <path id="path3756" d="M18.29 44h-5.58a1.5 1.5 0 0 1-1.5-1.5v-3a1.5 1.5 0 0 1 1.5-1.5h5.58a1.5 1.5 0 0 1 1.5 1.5v3a1.5 1.5 0 0 1-1.5 1.5zm-5.58-5a.5.5 0 0 0-.5.5v3a.5.5 0 0 0 .5.5h5.58a.5.5 0 0 0 .5-.5v-3a.5.5 0 0 0-.5-.5z"/>
            <path id="path3758" d="M28.5 40.12a60.33 60.33 0 0 1-12.61 1.42A60.33 60.33 0 0 1 2.5 40.12a2 2 0 0 1-1.41-.59 2 2 0 0 1-.59-1.4v-18a2 2 0 0 1 2-2 40.72 40.72 0 0 0 13.18 1.71s2.17-.09 12.82-1.71a2 2 0 0 1 2 2v18a2 2 0 0 1-2 1.99z" class="cls-1" fill="#fff"/>
            <path id="path3760" d="M15.5 42a60.88 60.88 0 0 1-13.06-1.38 2.56 2.56 0 0 1-1.71-.73A2.48 2.48 0 0 1 0 38.12v-18a2.5 2.5 0 0 1 2.5-2.5h.14a40.61 40.61 0 0 0 13 1.69s2.31-.11 12.77-1.7A2.51 2.51 0 0 1 31 20.12v18a2.5 2.5 0 0 1-2.44 2.5A61 61 0 0 1 15.89 42zM2.43 18.63A1.5 1.5 0 0 0 1 20.12v18a1.49 1.49 0 0 0 .44 1.06 1.54 1.54 0 0 0 1.06.44h.11A59.47 59.47 0 0 0 15.88 41a60 60 0 0 0 12.51-1.41h.11a1.5 1.5 0 0 0 1.5-1.5v-18a1.5 1.5 0 0 0-1.5-1.5c-10.49 1.6-12.71 1.7-12.8 1.71a41.47 41.47 0 0 1-13.27-1.67z"/>
            <circle id="circle3762" r="1.5" cy="37.12" cx="21.87"/>
            <circle id="circle3764" r="1.5" cy="36.15" cx="26.56"/>
            <rect id="rect3766" ry="1" rx="1" height="9.41" width="11.4" y="2.9" x="6.64"/>
            <path id="path3768" d="M17 12.81H7.64a1.5 1.5 0 0 1-1.5-1.5V3.9a1.5 1.5 0 0 1 1.5-1.5H17a1.5 1.5 0 0 1 1.5 1.5v7.41a1.5 1.5 0 0 1-1.5 1.5zM7.64 3.4a.5.5 0 0 0-.5.5v7.41a.5.5 0 0 0 .5.5H17a.5.5 0 0 0 .5-.5V3.9a.5.5 0 0 0-.5-.5z"/>
            <path id="path3770" d="M15.59 9.8a4 4 0 0 0 1.91 2V3.65a4.26 4.26 0 0 0-2 1.95" class="cls-1" fill="#fff"/>
            <path id="path3772" d="M15.91 7.65a2.34 2.34 0 0 1-2.28 2.18h-1.71a2.09 2.09 0 0 1-2-2.18 2.09 2.09 0 0 1 2-2.18h1.71a2.34 2.34 0 0 1 2.28 2.18z" class="cls-1" fill="#fff"/>
            <path id="path3774" d="M13.63 10.33h-1.71a2.6 2.6 0 0 1-2.49-2.68A2.6 2.6 0 0 1 11.92 5h1.71a2.84 2.84 0 0 1 2.78 2.68 2.84 2.84 0 0 1-2.78 2.65zM11.92 6a1.6 1.6 0 0 0-1.49 1.68 1.6 1.6 0 0 0 1.49 1.68h1.71a1.85 1.85 0 0 0 1.78-1.68A1.85 1.85 0 0 0 13.63 6z"/>
            <path id="path3776" d="M16 72.21h-1c0-1.9 1.12-3.37 2.1-4.67.85-1.11 1.58-2.08 1.37-3-.21-.92-1.25-1.78-3.2-2.77-1.95-.99-3.13-2.18-3.58-3.62-.71-2.3.62-4.74 1.79-6.89a9.62 9.62 0 0 0 1.52-3.8v-3.92h1v3.92c0 1.29-.8 2.75-1.64 4.29-1.15 2.07-2.36 4.25-1.73 6.11a5.49 5.49 0 0 0 3.08 3c2.29 1.14 3.44 2.27 3.72 3.46.32 1.37-.59 2.56-1.55 3.82-.96 1.26-1.88 2.5-1.88 4.07z"/>
        </g>
    </g>
    <g id="layer3" transform="translate(-96.818 -157.3)">
        <text id="S’identifier-avec-it" font-size="4.762" font-weight="700" x="95.231" y="157.3" font-family="RobotoSlab-Bold,'Roboto Slab'" fill-rule="evenodd" stroke-width=".265">
            <tspan x="116.397" y="166.56" id="tspan3720" style="-inkscape-font-specification:'RobotoSlab-Bold, Roboto Slab Bold'" letter-spacing="0">S&apos;identifier avec lecteur</tspan>
        </text>
    </g>
</svg>
